:SAMPLES-PER-SECOND 30
:FULLY-SPECIFIED
:DEGREES
483
root  74.1972 38.915 2.55597 115.326 82.6498 111.632
RightUpLeg  -20.0088 -10.0456 -4.45438
RightLeg  12.84 8.59966 3.39414
RightFoot  6.98947 0.931771 -5.46159
RightToes  3.49245e-010 0 -3.6325e-017
Spine  29.3752 -3.44133 3.47356
Spine1  5.47502 -3.08738 -0.0333972
HEad  -33.471 -15.9298 -5.70038
LeftShoulder1  2.12964 -6.63845 -14.083
LeftArm  -19.0588 -66.6003 -31.2057
LeftForeArm  -22.0421 -16.9332 -5.19675
LeftHand  0.259103 7.16706 -3.07055
RightShoulder  0.797706 1.63668 8.04511
RightArm  -30.1615 67.9251 10.6653
RightForeArm  -41.0772 8.40698 3.69772
RightHand  -0.241753 10.0952 -2.21492
LeftUpLeg  -13.0867 3.82848 -1.18696
LeftLeg  22.9369 1.29648 0.955804
LeftFoot  -2.98298 0.523682 -6.85772
LeftToes  -5.36635e-011 -6.70219e-011 5.24975e-011
484
root  74.6834 39.0166 2.74915 114.316 81.8766 110.656
RightUpLeg  -19.3572 -10.6643 -5.04317
RightLeg  13.3744 8.8198 3.56649
RightFoot  5.67618 0.83512 -5.31315
RightToes  3.49245e-010 0 -3.6325e-017
Spine  29.5802 -3.48928 3.23803
Spine1  5.64847 -3.14273 -0.26442
HEad  -33.1705 -16.3062 -5.19899
LeftShoulder1  2.14185 -6.80817 -13.8336
LeftArm  -19.5613 -66.6113 -31.0611
LeftForeArm  -24.3421 -16.3104 -5.17271
LeftHand  -5.32102 24.332 -12.9084
RightShoulder  0.785504 1.59382 7.92695
RightArm  -30.8444 68.9288 9.74008
RightForeArm  -40.8402 7.1263 3.7888
RightHand  -0.228086 9.98115 -2.12664
LeftUpLeg  -10.7673 2.63735 -2.12715
LeftLeg  16.9364 0.325968 0.425777
LeftFoot  -1.69359 0.737832 -8.73485
LeftToes  -5.36635e-011 -6.70219e-011 5.24975e-011
485
root  75.12 39.1893 2.9228 111.884 81.0078 108.17
RightUpLeg  -18.3085 -11.2184 -5.77704
RightLeg  12.683 9.47006 3.60274
RightFoot  5.82641 1.0222 -6.49736
RightToes  3.49245e-010 0 -3.6325e-017
Spine  29.4397 -3.41503 2.94914
Spine1  6.03169 -2.92205 -1.01358
HEad  -32.8433 -17.1774 -4.66368
LeftShoulder1  2.16615 -7.03603 -13.5938
LeftArm  -19.3906 -67.1783 -30.8959
LeftForeArm  -33.0462 -14.9346 -5.56986
LeftHand  -47.6128 76.7937 -62.8747
RightShoulder  0.754228 1.37056 8.00228
RightArm  -31.5439 69.9184 8.59787
RightForeArm  -40.487 5.55963 3.93639
RightHand  -0.147006 10.2159 -1.49904
LeftUpLeg  -8.53705 2.47174 -3.44584
LeftLeg  12.2964 0.805385 0.369528
LeftFoot  0.102764 0.660088 -6.54517
LeftToes  -5.36635e-011 -6.70219e-011 5.24975e-011
486
root  75.4888 39.287 3.07318 113.05 80.3772 109
RightUpLeg  -17.8688 -11.8247 -6.27457
RightLeg  12.4947 9.49146 3.82752
RightFoot  5.27702 1.01089 -6.66038
RightToes  3.49245e-010 0 -3.6325e-017
Spine  29.136 -3.3955 2.4732
Spine1  6.38642 -3.17656 -0.378554
HEad  -32.2453 -16.9643 -4.87441
LeftShoulder1  2.16346 -7.14815 -13.3265
LeftArm  -20.3841 -67.5022 -29.8911
LeftForeArm  -40.1556 -13.2779 -5.67393
LeftHand  -114.148 72.6627 -127.977
RightShoulder  0.733706 1.58148 6.8117
RightArm  -32.6082 70.8544 8.44414
RightForeArm  -39.4311 3.73092 3.59642
RightHand  -0.123991 9.85952 -1.34782
LeftUpLeg  -6.98189 2.35775 -4.1532
LeftLeg  9.63581 3.96747 0.734876
LeftFoot  0.686827 0.785701 -7.51871
LeftToes  -5.36635e-011 -6.70219e-011 5.24975e-011
487
root  75.8437 39.3698 3.2021 114.154 79.5547 109.93
RightUpLeg  -17.4879 -12.6198 -7.00902
RightLeg  12.7928 9.60225 4.09161
RightFoot  4.47666 0.917045 -6.3699
RightToes  3.49245e-010 0 -3.6325e-017
Spine  29.0026 -3.49793 1.63194
Spine1  6.76297 -3.66612 0.299537
HEad  -32.5182 -16.7619 -5.09613
LeftShoulder1  2.13248 -6.92854 -13.472
LeftArm  -21.5199 -68.2912 -28.8933
LeftForeArm  -38.0569 -11.5596 -5.43752
LeftHand  -84.2528 79.4988 -97.9233
RightShoulder  0.748664 1.75954 6.58362
RightArm  -33.8033 72.1878 7.68276
RightForeArm  -38.8969 2.04394 3.5175
RightHand  -0.180074 9.78842 -1.77787
LeftUpLeg  -5.35515 2.32336 -5.03851
LeftLeg  7.8725 4.99493 0.434258
LeftFoot  1.45722 0.714291 -6.44391
LeftToes  -5.36635e-011 -6.70219e-011 5.24975e-011
488
root  76.1655 39.4184 3.33123 116.34 78.852 111.894
RightUpLeg  -17.1983 -12.9732 -7.39093
RightLeg  12.9492 10.039 4.15762
RightFoot  4.15388 0.820466 -5.81196
RightToes  3.49245e-010 0 -3.6325e-017
Spine  28.7002 -3.5256 1.01863
Spine1  7.10779 -4.07161 1.21661
HEad  -32.8986 -16.5562 -5.97312
LeftShoulder1  2.15908 -6.85402 -13.9144
LeftArm  -21.5001 -69.1188 -29.1551
LeftForeArm  -29.339 -10.855 -5.19696
LeftHand  -18.9099 58.7396 -30.3862
RightShoulder  0.767378 1.92905 6.47004
RightArm  -35.9658 73.2004 5.32147
RightForeArm  -38.0125 0.649452 3.49703
RightHand  -0.142673 9.67611 -1.50064
LeftUpLeg  -4.2957 2.73047 -5.70027
LeftLeg  7.63803 4.83419 0.0669029
LeftFoot  1.12204 0.769821 -7.11587
LeftToes  -5.36635e-011 -6.70219e-011 5.24975e-011
489
root  76.4489 39.4856 3.46357 117.639 78.1288 113.569
RightUpLeg  -16.146 -13.4876 -8.01826
RightLeg  12.9252 10.0066 4.21946
RightFoot  3.54262 0.78495 -5.81492
RightToes  3.49245e-010 0 -3.6325e-017
Spine  28.7445 -3.65145 1.05493
Spine1  7.77368 -4.12959 1.03013
HEad  -33.1346 -17.4047 -6.38289
LeftShoulder1  2.16196 -7.15513 -13.3034
LeftArm  -22.2591 -69.5556 -30.4957
LeftForeArm  -22.4986 -10.5832 -4.04964
LeftHand  -1.45329 28.8823 -7.5283
RightShoulder  0.754446 1.83825 6.46609
RightArm  -37.662 73.4048 4.11056
RightForeArm  -36.9295 -0.0399191 3.12664
RightHand  -0.124267 8.95958 -1.3921
LeftUpLeg  -2.3514 2.45633 -6.34858
LeftLeg  7.09327 3.91319 -0.115833
LeftFoot  1.8127 0.749998 -6.59103
LeftToes  -5.36635e-011 -6.70219e-011 5.24975e-011
490
root  76.7456 39.5386 3.56776 119.857 77.8055 115.476
RightUpLeg  -15.7376 -13.7569 -8.1996
RightLeg  12.6579 9.74732 4.38786
RightFoot  3.33214 0.813555 -6.12549
RightToes  3.49245e-010 0 -3.6325e-017
Spine  27.998 -3.86451 1.84217
Spine1  8.26723 -4.01941 0.51941
HEad  -32.784 -18.6228 -6.42417
LeftShoulder1  2.20092 -7.62101 -12.7442
LeftArm  -22.6083 -70.0022 -29.0369
LeftForeArm  -22.5017 -9.46659 -4.34286
LeftHand  -0.637017 17.354 -5.30434
RightShoulder  0.723556 1.81259 5.89174
RightArm  -38.5418 73.1956 3.48512
RightForeArm  -36.1133 -0.638463 2.80866
RightHand  -0.077014 8.14634 -1.03934
LeftUpLeg  -1.1374 2.52743 -6.38618
LeftLeg  6.69854 3.32347 -0.250291
LeftFoot  1.30802 0.895062 -8.15806
LeftToes  -5.36635e-011 -6.70219e-011 5.24975e-011
491
root  77.0044 39.5188 3.62877 120.146 77.6438 115.461
RightUpLeg  -15.9191 -14.1105 -8.36134
RightLeg  13.3798 9.337 4.60245
RightFoot  2.06217 0.685064 -5.70379
RightToes  3.49245e-010 0 -3.6325e-017
Spine  27.4117 -3.85246 1.79221
Spine1  8.94012 -4.20786 1.19779
HEad  -33.0052 -19.7854 -7.19111
LeftShoulder1  2.11144 -7.14159 -12.8018
LeftArm  -23.4237 -70.5657 -27.6888
LeftForeArm  -22.7511 -8.35217 -4.30658
LeftHand  -0.510558 12.6989 -6.55159
RightShoulder  0.733851 2.01049 5.54309
RightArm  -39.9539 73.4734 2.30824
RightForeArm  -35.3506 -0.691044 2.62295
RightHand  -0.0956633 7.9018 -1.20621
LeftUpLeg  0.571479 2.8943 -6.36374
LeftLeg  5.55593 3.86988 -0.526086
LeftFoot  0.31101 0.988239 -9.67298
LeftToes  -5.36635e-011 -6.70219e-011 5.24975e-011
492
root  77.174 39.5398 3.70599 119.761 77.3143 114.898
RightUpLeg  -15.9165 -14.308 -8.63917
RightLeg  13.5788 9.50355 4.68322
RightFoot  1.69551 0.645335 -5.5386
RightToes  3.49245e-010 0 -3.6325e-017
Spine  27.6218 -3.82015 1.7263
Spine1  8.64294 -4.16244 1.22802
HEad  -33.2223 -19.6533 -8.22885
LeftShoulder1  2.07443 -7.06201 -12.5816
LeftArm  -23.6276 -70.8941 -27.389
LeftForeArm  -22.6288 -7.81502 -4.28229
LeftHand  -0.40801 11.7738 -5.96899
RightShoulder  0.748419 2.02601 5.80105
RightArm  -40.7558 73.6088 0.49396
RightForeArm  -35.7281 -0.677228 2.945
RightHand  -0.121408 8.08925 -1.42296
LeftUpLeg  2.02725 3.23949 -6.48375
LeftLeg  5.2139 4.65533 -0.673639
LeftFoot  0.605048 1.07749 -10.3165
LeftToes  -5.36635e-011 -6.70219e-011 5.24975e-011
493
root  77.3877 39.5903 3.75649 121.415 76.9629 116.46
RightUpLeg  -15.494 -14.5888 -8.91506
RightLeg  13.4466 9.35748 4.79935
RightFoot  1.56412 0.657659 -5.71116
RightToes  3.49245e-010 0 -3.6325e-017
Spine  27.3496 -3.93185 1.85792
Spine1  8.81798 -4.30418 1.55191
HEad  -32.8212 -20.1851 -8.49718
LeftShoulder1  2.0555 -7.15191 -12.201
LeftArm  -23.8471 -70.7252 -27.2967
LeftForeArm  -23.0849 -8.08423 -4.22789
LeftHand  -0.612964 15.3456 -5.94981
RightShoulder  0.726341 1.94953 5.55917
RightArm  -41.5661 73.6177 -0.550611
RightForeArm  -35.1766 -0.799244 2.92337
RightHand  -0.0469837 8.01492 -0.775522
LeftUpLeg  3.82854 3.5009 -6.36184
LeftLeg  4.63648 5.30211 -0.760401
LeftFoot  1.02699 1.07416 -9.95253
LeftToes  -5.36635e-011 -6.70219e-011 5.24975e-011
494
root  77.644 39.6604 3.75818 124.261 76.5211 118.612
RightUpLeg  -15.5107 -14.8182 -9.16465
RightLeg  13.086 8.70886 4.81657
RightFoot  1.57826 0.723886 -6.28704
RightToes  3.49245e-010 0 -3.6325e-017
Spine  25.7751 -4.09156 2.15204
Spine1  9.87235 -4.53433 1.96689
HEad  -32.4382 -20.7822 -8.38475
LeftShoulder1  2.05704 -7.0874 -12.3477
LeftArm  -23.9886 -71.0192 -27.1244
LeftForeArm  -24.0405 -8.24372 -4.33319
LeftHand  -0.719209 19.6123 -4.7809
RightShoulder  0.704142 1.78268 5.55881
RightArm  -42.7797 73.6003 -2.65005
RightForeArm  -34.3994 -0.567642 3.09472
RightHand  0.0809421 7.44473 0.355031
LeftUpLeg  5.20443 3.5103 -6.26823
LeftLeg  3.95181 5.7062 -0.784901
LeftFoot  1.35739 1.0894 -9.84902
LeftToes  -5.36635e-011 -6.70219e-011 5.24975e-011
495
root  77.7973 39.7092 3.76485 127.273 76.0675 120.979
RightUpLeg  -15.6093 -14.8578 -9.29554
RightLeg  12.6251 8.13626 4.66808
RightFoot  1.55822 0.681866 -5.927
RightToes  3.49245e-010 0 -3.6325e-017
Spine  24.7478 -4.33849 2.46653
Spine1  10.1769 -4.79896 2.22618
HEad  -32.7637 -20.6012 -8.73735
LeftShoulder1  2.05428 -7.20273 -12.0872
LeftArm  -23.742 -70.8501 -27.5023
LeftForeArm  -25.9459 -8.43205 -4.39303
LeftHand  -0.67173 24.5087 -3.14298
RightShoulder  0.688375 1.84218 5.05419
RightArm  -42.7769 73.2051 -2.31518
RightForeArm  -33.1688 -0.289996 2.80996
RightHand  0.23835 7.53847 1.77182
LeftUpLeg  6.22692 3.91584 -5.90297
LeftLeg  3.89979 4.9194 -0.923327
LeftFoot  1.77307 1.12401 -9.85451
LeftToes  -5.36635e-011 -6.70219e-011 5.24975e-011
496
root  77.8898 39.7506 3.77847 129.292 75.6359 122.636
RightUpLeg  -15.6649 -14.9107 -9.43306
RightLeg  12.4057 7.69472 4.51437
RightFoot  1.57806 0.634141 -5.49696
RightToes  3.49245e-010 0 -3.6325e-017
Spine  24.6162 -4.50928 2.57182
Spine1  9.62575 -5.02205 2.59528
HEad  -32.2292 -20.5565 -8.60087
LeftShoulder1  2.06956 -7.13632 -12.3784
LeftArm  -23.1349 -70.4556 -28.9045
LeftForeArm  -26.5642 -9.32062 -4.26793
LeftHand  -0.409163 29.4179 -1.09087
RightShoulder  0.71499 1.97254 5.2598
RightArm  -42.0112 72.5973 -1.53176
RightForeArm  -32.2192 0.795579 2.7006
RightHand  0.280019 6.86356 2.27788
LeftUpLeg  7.40804 4.55196 -5.43783
LeftLeg  4.10739 4.47061 -1.01456
LeftFoot  2.03017 1.21971 -10.4884
LeftToes  -5.36635e-011 -6.70219e-011 5.24975e-011
